<?xml version="1.0" encoding="UTF-8"?>
<svg id="Layer_1" data-name="Layer 1" xmlns="http://www.w3.org/2000/svg" viewBox="0 0 151 40">
  <defs>
    <style>
      .cls-1 {
        fill: #fff;
        stroke-width: 0px;
      }
    </style>
  </defs>
  <path class="cls-1" d="M25.44,3.32c-2.1,0-3.8,1.7-3.8,3.8v29.56h30.11c2.1,0,3.8-1.7,3.8-3.8V3.32h-30.11ZM23.02,7.63c0-1.69,1.13-2.92,2.82-2.92h11.37c-.51.27-.91.71-1.15,1.28l-13.04,28.24V7.63ZM24.23,35.28l13.06-28.73c.21-.51.7-1.02,1.25-1.02s1.07.31,1.28.82l11.62,28.91-27.22.02ZM54.03,33.51c-.09.7-.52,1.21-1.1,1.61l-1.97-4.93-9.84-24.21c-.25-.57-.65-1.01-1.15-1.28h14.18v26.62c0,.34.01,1.15-.13,2.19Z"/>
  <path class="cls-1" d="M56.14,36.62c.44-.11,1.37-.97,1.45-1.32h67.05c2.47,0,3.38-.94,3.34-3.92V4.7H57.59v-1.38h71.77v29.82c0,2.13-1.52,3.54-3.54,3.54h0l-69.67-.06Z"/>
  <g>
    <path class="cls-1" d="M107.47,28.31c0-.76,0-1.5,0-2.24.01-1.14,0-2.27.06-3.41.1-1.83,1.01-3.19,2.54-4.16.1-.06.19-.13.3-.21-.97-1.59-1.93-3.17-2.93-4.81.39,0,.68,0,.98,0,.71,0,1.42.01,2.12,0,.27,0,.41.08.55.31,1.29,2.12,2.6,4.23,3.9,6.34.02.04.05.07.09.13.99-.58,1.61-1.39,1.65-2.56.03-1.23.03-2.46.05-3.69,0-.15,0-.3,0-.48h2.94c0,.07.03.13.03.2,0,1.22,0,2.44,0,3.66-.02,1.91-.86,3.4-2.37,4.54-.29.21-.58.41-.89.63,1.18,1.91,2.34,3.82,3.54,5.77-.14.02-.23.04-.31.04-.97,0-1.95,0-2.92,0-.22,0-.33-.08-.43-.26-1.48-2.43-2.97-4.86-4.46-7.29-.05-.09-.11-.17-.18-.28-.7.41-1.06,1.03-1.17,1.79-.06.43-.08.88-.09,1.32,0,1.55,0,3.11,0,4.69h-2.98Z"/>
    <path class="cls-1" d="M89.83,25.4h1.73v2.92h-12.51v-2.91h7.71c0-.13.02-.22.02-.31,0-1.9.03-3.81-.02-5.71-.01-.57-.15-1.18-.39-1.71-.42-.93-1.29-1.23-2.24-1.25-1.52-.03-3.04-.01-4.56-.01-.13,0-.25,0-.4,0v-2.92c.11,0,.2-.02.29-.02,1.89,0,3.78-.01,5.68.03,1.28.03,2.48.36,3.41,1.32.81.83,1.17,1.88,1.21,3,.07,2.35.05,4.71.07,7.07,0,.15,0,.3,0,.5Z"/>
    <path class="cls-1" d="M93.41,16.43v-4.77h2.97v1.81c.16,0,.29.02.42.02,1.4,0,2.81,0,4.21.03,1.04.03,1.98.36,2.73,1.12.71.73,1.02,1.63,1.15,2.62.26,2-.49,3.68-1.65,5.22-.63.84-1.29,1.67-1.98,2.47-.83.97-1.52,1.98-1.34,3.36h-2.95c-.21-1.54.19-2.92,1.12-4.14,1-1.32,2-2.64,2.99-3.97.41-.56.7-1.16.68-1.89-.03-1.1-.75-1.86-1.86-1.87-2.02-.02-4.04,0-6.06,0-.14,0-.27,0-.44,0Z"/>
    <path class="cls-1" d="M65.54,16.43v-2.92c.11,0,.2-.02.29-.02,1.9,0,3.81-.01,5.71.03,1.19.02,2.33.31,3.24,1.14.96.87,1.33,2.02,1.4,3.26.06,1.09.04,2.18.04,3.27,0,2.23,0,4.46,0,6.68,0,.14,0,.28,0,.44h-3.01c0-.12,0-.26,0-.39,0-2.82,0-5.64-.01-8.46,0-.42-.05-.86-.16-1.27-.32-1.17-1.1-1.75-2.35-1.76-1.58-.02-3.16,0-4.73,0-.13,0-.25,0-.41,0Z"/>
  </g>
</svg>