<svg width="122" height="26" viewBox="0 0 122 26" fill="none" xmlns="http://www.w3.org/2000/svg">
<path d="M19.7341 7.24259L16.1018 15.3335L12.0622 5.87238L8.11895 15.3373L4.43113 7.24259H0.56189L8.16338 22.7506L12.0659 13.6729L16.0722 22.7394L23.6403 7.24259H19.7341Z" fill="#1D3557"/>
<path d="M33.5708 16.5809C32.7266 18.2564 31.5825 19.0644 30.0681 19.0644C29.0166 19.1016 28.002 18.666 27.3059 17.8729C26.6987 17.1692 26.347 16.2793 26.3062 15.3521H36.5144L36.5551 14.1457C36.5773 12.9729 36.3514 11.8112 35.8886 10.7351C34.8445 8.16968 32.7895 6.87022 29.7756 6.87022C28.7907 6.85905 27.8169 7.04894 26.9061 7.42873C25.2584 8.13245 23.9736 9.49894 23.3663 11.1931C22.9998 12.0793 22.8035 13.0287 22.785 13.9856C22.785 16.4319 23.4182 18.4165 24.666 19.8872C25.9249 21.3989 27.8021 22.2479 29.7608 22.192C32.6784 22.192 34.9519 20.8814 36.5107 18.2899L36.7254 17.9101L33.7596 16.2011L33.5671 16.5809H33.5708ZM26.5025 12.6489C26.6765 11.9638 27.0542 11.3457 27.5873 10.884C28.2464 10.3293 29.0869 10.0351 29.9459 10.0649C30.7605 10.0388 31.5491 10.3479 32.1305 10.925C32.5933 11.4016 32.9191 11.9973 33.0635 12.6489H26.5025Z" fill="#1D3557"/>
<path d="M73.0629 6.99679C71.6522 6.92605 70.2786 7.4585 69.2788 8.46009V0.484558H65.6947V22.1064H68.8308V14.2388C68.8308 10.8021 70.3452 10.4037 71.4819 10.4037C72.4705 10.4037 73.1814 10.6122 73.5961 11.0255C74.0108 11.4388 74.207 12.1612 74.207 13.1739V21.6558H77.7912V12.9058C77.7912 8.02445 74.9957 6.99679 72.6519 6.99679" fill="#1D3557"/>
<path d="M90.3654 16.5809C89.5212 18.2564 88.3734 19.0644 86.8627 19.0644C85.8074 19.1053 84.7929 18.666 84.0931 17.8729C83.4859 17.1692 83.1342 16.2793 83.0934 15.3521H93.2978L93.3423 14.1457C93.3645 12.9729 93.1386 11.8112 92.6758 10.7351C91.6317 8.16968 89.5767 6.87022 86.5628 6.87022C85.5779 6.85905 84.6004 7.04894 83.6932 7.42873C82.0456 8.13245 80.7608 9.49894 80.1535 11.1931C79.7944 12.0755 79.6055 13.0176 79.587 13.9745C79.587 16.417 80.2202 18.4053 81.468 19.8761C82.7269 21.3878 84.6078 22.2367 86.5665 22.1809C89.4841 22.1809 91.7576 20.8702 93.3164 18.2787L93.5311 17.8989L90.5542 16.2048L90.358 16.5846L90.3654 16.5809ZM83.2971 12.6489C83.6858 11.0702 85.1336 9.98671 86.7516 10.0649C87.5662 10.0388 88.3548 10.3479 88.9362 10.925C89.399 11.4016 89.7248 11.9973 89.8692 12.6489H83.2971Z" fill="#1D3557"/>
<path d="M102.451 7.05267C101.096 7.04522 99.7626 7.3915 98.5777 8.05799C96.1525 9.40214 94.6567 11.9787 94.6826 14.7676C94.6715 16.1303 95.0417 17.467 95.7526 18.6287C96.4524 19.7718 97.4484 20.7027 98.6296 21.3245C99.807 21.9426 101.121 22.2591 102.451 22.2516C103.784 22.2665 105.102 21.9686 106.301 21.3841L106.457 21.2723V16.6963L105.827 17.4C105.357 17.9064 104.806 18.3309 104.195 18.6548C103.573 18.9266 102.895 19.0569 102.217 19.0346C101.429 19.0458 100.655 18.8075 100.011 18.3532C98.7444 17.4819 98.1297 16.2234 98.1297 14.5069C98.1297 13.4048 98.5629 12.3436 99.3405 11.5654C100.04 10.7463 101.058 10.2771 102.132 10.2809C103.558 10.2362 104.92 10.8692 105.809 11.9936L106.909 12.8649V8.06544L106.316 7.94629C105.12 7.33565 103.791 7.03033 102.451 7.06012" fill="#1D3557"/>
<path d="M114.869 13.3713L121.39 7.24254H116.55L111.829 11.7106V0.484558H108.245V21.6558H111.829V16.1378L112.296 15.6947L117.213 21.6521H121.908L114.869 13.3675V13.3713Z" fill="#1D3557"/>
<path d="M56.2642 18.1521C53.4205 21.008 48.8145 21.008 45.9746 18.1521C43.1347 15.2926 43.1347 10.6607 45.9746 7.8048C48.8145 4.94895 53.4205 4.94895 56.2642 7.8048L56.5493 8.0915L60.2408 4.37927L59.9594 4.09257C55.0756 -0.814881 47.1631 -0.811157 42.2868 4.10001C37.4067 9.01118 37.4104 16.9681 42.2942 21.8718C47.1742 26.7755 55.083 26.7755 59.9594 21.8718L60.2408 21.5888L56.5493 17.8766L56.2642 18.1559V18.1521Z" fill="#1D3557"/>
<path d="M61.259 5.63776L57.4934 9.42446C58.7042 11.6324 58.7042 14.3096 57.4934 16.5175L61.259 20.3042C64.4025 15.9218 64.4025 10.0053 61.259 5.62286" fill="#ED1C24"/>
</svg>
